<svg width="31" height="24" viewBox="0 0 31 24" fill="none" xmlns="http://www.w3.org/2000/svg">
<g clip-path="url(#clip0_7_143)">
<path d="M10.7344 16.5C16.1203 16.5 20.4844 12.8062 20.4844 8.25C20.4844 3.69375 16.1203 0 10.7344 0C5.34846 0 0.9844 3.69375 0.9844 8.25C0.9844 10.0594 1.67346 11.7328 2.84065 13.0969C2.67659 13.5375 2.43284 13.9266 2.17502 14.2547C1.95002 14.5453 1.72034 14.7703 1.55159 14.925C1.46721 15 1.3969 15.0609 1.35002 15.0984C1.32659 15.1172 1.30784 15.1312 1.29846 15.1359L1.28909 15.1453C1.03127 15.3375 0.918775 15.675 1.0219 15.9797C1.12502 16.2844 1.41096 16.5 1.7344 16.5C2.75627 16.5 3.78753 16.2375 4.64534 15.9141C5.07659 15.75 5.47971 15.5672 5.83128 15.3797C7.27034 16.0922 8.94378 16.5 10.7344 16.5ZM21.9844 8.25C21.9844 13.5141 17.3391 17.4797 11.836 17.9531C12.975 21.4406 16.7532 24 21.2344 24C23.025 24 24.6985 23.5922 26.1422 22.8797C26.4938 23.0672 26.8922 23.25 27.3235 23.4141C28.1813 23.7375 29.2125 24 30.2344 24C30.5578 24 30.8485 23.7891 30.9469 23.4797C31.0453 23.1703 30.9375 22.8328 30.675 22.6406L30.6657 22.6312C30.6563 22.6219 30.6375 22.6125 30.6141 22.5938C30.5672 22.5562 30.4969 22.5 30.4125 22.4203C30.2438 22.2656 30.0141 22.0406 29.7891 21.75C29.5313 21.4219 29.2875 21.0281 29.1235 20.5922C30.2907 19.2328 30.9797 17.5594 30.9797 15.7453C30.9797 11.3953 27 7.82812 21.9516 7.51875C21.9703 7.75781 21.9797 8.00156 21.9797 8.24531L21.9844 8.25Z" fill="#F97316"/>
</g>
<defs>
<clipPath id="clip0_7_143">
<path d="M0.984375 0H30.9844V24H0.984375V0Z" fill="white"/>
</clipPath>
</defs>
</svg>
