<svg width="25" height="24" viewBox="0 0 25 24" fill="none" xmlns="http://www.w3.org/2000/svg">
<g clip-path="url(#clip0_7_151)">
<path d="M2.8875 14.0813L11.3578 21.9891C11.7094 22.3172 12.1734 22.5 12.6562 22.5C13.1391 22.5 13.6031 22.3172 13.9547 21.9891L22.425 14.0813C23.85 12.7547 24.6562 10.8938 24.6562 8.94844V8.67657C24.6562 5.40001 22.2891 2.60626 19.0594 2.06719C16.9219 1.71094 14.7469 2.40938 13.2188 3.93751L12.6562 4.50001L12.0938 3.93751C10.5656 2.40938 8.39062 1.71094 6.25313 2.06719C3.02344 2.60626 0.65625 5.40001 0.65625 8.67657V8.94844C0.65625 10.8938 1.4625 12.7547 2.8875 14.0813Z" fill="#F97316"/>
</g>
<defs>
<clipPath id="clip0_7_151">
<path d="M0.65625 0H24.6562V24H0.65625V0Z" fill="white"/>
</clipPath>
</defs>
</svg>
