<svg width="30" height="30" viewBox="0 0 30 30" fill="none" xmlns="http://www.w3.org/2000/svg">
<g clip-path="url(#clip0_19_1540)">
<path d="M15.7852 0.169922C15.5391 0.0585938 15.2754 0 15 0C14.7246 0 14.461 0.0585938 14.2149 0.169922L3.18167 4.85156C1.8926 5.39648 0.931667 6.66797 0.937527 8.20312C0.966824 14.0156 3.35745 24.6504 13.4532 29.4844C14.4317 29.9531 15.5684 29.9531 16.5469 29.4844C26.6426 24.6504 29.0332 14.0156 29.0625 8.20312C29.0684 6.66797 28.1074 5.39648 26.8184 4.85156L15.7852 0.169922ZM8.43753 12.9668C8.43753 10.9863 10.043 9.375 12.0293 9.375C12.9785 9.375 13.8926 9.75586 14.5664 10.4238L15 10.8574L15.4336 10.4238C16.1074 9.75 17.0215 9.375 17.9707 9.375C19.9512 9.375 21.5625 10.9805 21.5625 12.9668C21.5625 13.916 21.1817 14.8301 20.5137 15.5039L15.668 20.3496C15.3047 20.7129 14.7071 20.7129 14.3438 20.3496L9.49807 15.5039C8.82425 14.8301 8.44925 13.916 8.44925 12.9668H8.43753Z" fill="#F97316"/>
</g>
<defs>
<clipPath id="clip0_19_1540">
<path d="M0 0H30V30H0V0Z" fill="white"/>
</clipPath>
</defs>
</svg>
