<svg width="20" height="16" viewBox="0 0 20 16" fill="none" xmlns="http://www.w3.org/2000/svg">
<g clip-path="url(#clip0_45_374)">
<path d="M15 1.5C15 0.671875 14.3281 0 13.5 0H10.5C9.67188 0 9 0.671875 9 1.5V3H7V0.75C7 0.334375 6.66563 0 6.25 0C5.83437 0 5.5 0.334375 5.5 0.75V3H3.5V0.75C3.5 0.334375 3.16563 0 2.75 0C2.33437 0 2 0.334375 2 0.75V3H1.5C0.671875 3 0 3.67188 0 4.5V7.5V14.5C0 15.3281 0.671875 16 1.5 16H9.5H10.5H13.5H18.5C19.3281 16 20 15.3281 20 14.5V7.5C20 6.67188 19.3281 6 18.5 6H15V1.5ZM18 11.5V12.5C18 12.775 17.775 13 17.5 13H16.5C16.225 13 16 12.775 16 12.5V11.5C16 11.225 16.225 11 16.5 11H17.5C17.775 11 18 11.225 18 11.5ZM7.5 13H6.5C6.225 13 6 12.775 6 12.5V11.5C6 11.225 6.225 11 6.5 11H7.5C7.775 11 8 11.225 8 11.5V12.5C8 12.775 7.775 13 7.5 13ZM4 12.5C4 12.775 3.775 13 3.5 13H2.5C2.225 13 2 12.775 2 12.5V11.5C2 11.225 2.225 11 2.5 11H3.5C3.775 11 4 11.225 4 11.5V12.5ZM17.5 8C17.775 8 18 8.225 18 8.5V9.5C18 9.775 17.775 10 17.5 10H16.5C16.225 10 16 9.775 16 9.5V8.5C16 8.225 16.225 8 16.5 8H17.5ZM8 5.5V6.5C8 6.775 7.775 7 7.5 7H6.5C6.225 7 6 6.775 6 6.5V5.5C6 5.225 6.225 5 6.5 5H7.5C7.775 5 8 5.225 8 5.5ZM3.5 5C3.775 5 4 5.225 4 5.5V6.5C4 6.775 3.775 7 3.5 7H2.5C2.225 7 2 6.775 2 6.5V5.5C2 5.225 2.225 5 2.5 5H3.5ZM8 9.5C8 9.775 7.775 10 7.5 10H6.5C6.225 10 6 9.775 6 9.5V8.5C6 8.225 6.225 8 6.5 8H7.5C7.775 8 8 8.225 8 8.5V9.5ZM3.5 10H2.5C2.225 10 2 9.775 2 9.5V8.5C2 8.225 2.225 8 2.5 8H3.5C3.775 8 4 8.225 4 8.5V9.5C4 9.775 3.775 10 3.5 10ZM13 8.5V9.5C13 9.775 12.775 10 12.5 10H11.5C11.225 10 11 9.775 11 9.5V8.5C11 8.225 11.225 8 11.5 8H12.5C12.775 8 13 8.225 13 8.5ZM12.5 2C12.775 2 13 2.225 13 2.5V3.5C13 3.775 12.775 4 12.5 4H11.5C11.225 4 11 3.775 11 3.5V2.5C11 2.225 11.225 2 11.5 2H12.5ZM13 5.5V6.5C13 6.775 12.775 7 12.5 7H11.5C11.225 7 11 6.775 11 6.5V5.5C11 5.225 11.225 5 11.5 5H12.5C12.775 5 13 5.225 13 5.5Z" fill="#9CA3AF"/>
</g>
<defs>
<clipPath id="clip0_45_374">
<path d="M0 0H20V16H0V0Z" fill="white"/>
</clipPath>
</defs>
</svg>
