<svg width="30" height="30" viewBox="0 0 30 30" fill="none" xmlns="http://www.w3.org/2000/svg">
<path d="M9.49805 26.2324L8.75977 27.9609C7.66406 27.4043 6.65625 26.7188 5.74219 25.916L7.07227 24.5859C7.80469 25.2246 8.61914 25.7812 9.49805 26.2324ZM2.70703 15.9375H0.826172C0.908203 17.1797 1.14258 18.3809 1.51172 19.5176L3.25781 18.8203C2.9707 17.9004 2.77734 16.9336 2.70703 15.9375ZM2.70703 14.0625C2.78906 12.9609 3.01172 11.8945 3.35742 10.8926L1.62891 10.1543C1.18945 11.3848 0.914062 12.6973 0.826172 14.0625H2.70703ZM4.0957 9.16992C4.55273 8.29688 5.10352 7.48242 5.74219 6.73828L4.41211 5.4082C3.60937 6.32227 2.91797 7.33008 2.36719 8.42578L4.0957 9.16992ZM23.5898 24.5859C22.7754 25.2891 21.8672 25.8926 20.8887 26.3672L21.5859 28.1133C22.7988 27.5332 23.918 26.7891 24.9199 25.9102L23.5898 24.5859ZM7.06641 5.41406C7.88086 4.71094 8.78906 4.10742 9.76758 3.63281L9.07031 1.88672C7.85742 2.4668 6.73828 3.21094 5.74219 4.08984L7.06641 5.41406ZM26.5605 20.8301C26.1035 21.7031 25.5527 22.5176 24.9141 23.2617L26.2441 24.5918C27.0469 23.6777 27.7383 22.6641 28.2891 21.5742L26.5605 20.8301ZM27.9492 15.9375C27.8672 17.0391 27.6445 18.1055 27.2988 19.1074L29.0273 19.8457C29.4668 18.6094 29.7422 17.2969 29.8242 15.9316H27.9492V15.9375ZM19.1484 27.0703C18.2285 27.3633 17.2617 27.5508 16.2656 27.6211V29.502C17.5078 29.4199 18.709 29.1855 19.8457 28.8164L19.1484 27.0703ZM14.3906 27.6211C13.2891 27.5391 12.2227 27.3164 11.2207 26.9707L10.4824 28.6992C11.7188 29.1387 13.0312 29.4141 14.3965 29.4961V27.6211H14.3906ZM27.3984 11.1797C27.6914 12.0996 27.8789 13.0664 27.9492 14.0625H29.8301C29.748 12.8203 29.5137 11.6191 29.1445 10.4824L27.3984 11.1797ZM5.74219 23.2617C5.03906 22.4473 4.43555 21.5391 3.96094 20.5605L2.21484 21.2578C2.79492 22.4707 3.53906 23.5898 4.41797 24.5918L5.74219 23.2617ZM16.2656 2.37891C17.3672 2.46094 18.4277 2.68359 19.4355 3.0293L20.1738 1.30078C18.9434 0.861328 17.6309 0.585938 16.2656 0.498047V2.37891ZM11.5078 2.92969C12.4277 2.63672 13.3945 2.44922 14.3906 2.37891V0.498047C13.1484 0.580078 11.9473 0.814453 10.8105 1.18359L11.5078 2.92969ZM26.2441 5.4082L24.9141 6.73828C25.6172 7.55273 26.2207 8.46094 26.7012 9.43945L28.4473 8.74219C27.8672 7.5293 27.123 6.41016 26.2441 5.4082ZM23.5898 5.41406L24.9199 4.08398C24.0059 3.28125 22.998 2.58984 21.9023 2.03906L21.1641 3.76758C22.0312 4.22461 22.8516 4.77539 23.5898 5.41406Z" fill="#F97316"/>
<path d="M15.3281 22.9688C16.2342 22.9688 16.9688 22.2342 16.9688 21.3281C16.9688 20.422 16.2342 19.6875 15.3281 19.6875C14.422 19.6875 13.6875 20.422 13.6875 21.3281C13.6875 22.2342 14.422 22.9688 15.3281 22.9688Z" fill="#F97316"/>
<path d="M15.7794 18.2812H14.8419C14.4551 18.2812 14.1387 17.9648 14.1387 17.5781C14.1387 13.418 18.6739 13.834 18.6739 11.2617C18.6739 10.0898 17.6309 8.90625 15.3106 8.90625C13.6055 8.90625 12.7149 9.46875 11.8419 10.5879C11.6133 10.8809 11.1915 10.9395 10.8926 10.7285L10.1251 10.1895C9.79694 9.96094 9.72077 9.49805 9.97272 9.18164C11.2149 7.58789 12.6915 6.5625 15.3165 6.5625C18.3809 6.5625 21.0235 8.30859 21.0235 11.2617C21.0235 15.2227 16.4883 14.9824 16.4883 17.5781C16.4825 17.9648 16.1661 18.2812 15.7794 18.2812Z" fill="#F97316"/>
</svg>
