<svg width="17" height="16" viewBox="0 0 17 16" fill="none" xmlns="http://www.w3.org/2000/svg">
<path d="M16.5446 5.33145C16.7951 5.33145 17 5.17514 17 4.9841V3.82629C17 3.63525 16.7951 3.47895 16.5446 3.47895H15.7857V2.08957C15.7857 1.32252 14.9699 0.700195 13.9643 0.700195H1.82143C0.815848 0.700195 0 1.32252 0 2.08957V14.1308C0 14.8979 0.815848 15.5202 1.82143 15.5202H13.9643C14.9699 15.5202 15.7857 14.8979 15.7857 14.1308V12.7414H16.5446C16.7951 12.7414 17 12.5851 17 12.3941V11.2363C17 11.0453 16.7951 10.8889 16.5446 10.8889H15.7857V9.03645H16.5446C16.7951 9.03645 17 8.88014 17 8.6891V7.53129C17 7.34025 16.7951 7.18395 16.5446 7.18395H15.7857V5.33145H16.5446ZM7.89286 4.4052C9.23237 4.4052 10.3214 5.23593 10.3214 6.2577C10.3214 7.27947 9.23237 8.1102 7.89286 8.1102C6.55335 8.1102 5.46429 7.27947 5.46429 6.2577C5.46429 5.23593 6.55335 4.4052 7.89286 4.4052ZM12.1429 11.2594C12.1429 11.5663 11.7634 11.8152 11.2929 11.8152H4.49286C4.02232 11.8152 3.64286 11.5663 3.64286 11.2594V10.7037C3.64286 9.78324 4.78504 9.03645 6.19286 9.03645H6.38259C6.84933 9.18407 7.35781 9.26801 7.89286 9.26801C8.4279 9.26801 8.94018 9.18407 9.40312 9.03645H9.59286C11.0007 9.03645 12.1429 9.78324 12.1429 10.7037V11.2594Z" fill="white"/>
</svg>
