<svg width="17" height="16" viewBox="0 0 17 16" fill="none" xmlns="http://www.w3.org/2000/svg">
<g clip-path="url(#clip0_1050_13281)">
<path d="M14.4377 0.218764L15.4377 1.21876L16.4377 2.21876C16.7314 2.51251 16.7314 2.98751 16.4377 3.27814C16.1439 3.56876 15.6689 3.57189 15.3783 3.27814L14.9096 2.80939L13.7158 4.00001L15.4346 5.71876C15.7283 6.01251 15.7283 6.48751 15.4346 6.77814C15.1408 7.06876 14.6658 7.07189 14.3752 6.77814L12.1252 4.52814L9.8752 2.28126C9.58145 1.98751 9.58145 1.51251 9.8752 1.22189C10.1689 0.931264 10.6439 0.928139 10.9346 1.22189L12.6533 2.94064L13.8471 1.75001L13.3752 1.28126C13.0814 0.987514 13.0814 0.512514 13.3752 0.221889C13.6689 -0.0687362 14.1439 -0.0718612 14.4346 0.221889L14.4377 0.218764ZM7.22832 4.86564L9.1377 2.95626C9.14707 2.96564 9.15645 2.97814 9.16895 2.98751L9.66895 3.48751L11.4189 5.23751L13.1689 6.98751L13.6689 7.48751C13.6783 7.49689 13.6877 7.50626 13.7002 7.51876L7.73145 13.4875C7.40332 13.8156 6.95957 14 6.49395 14H3.71582L1.9377 15.7813C1.64395 16.075 1.16895 16.075 0.878322 15.7813C0.587697 15.4875 0.584572 15.0125 0.878322 14.7219L2.65957 12.9406V10.1656C2.65957 9.70001 2.84395 9.25626 3.17207 8.92814L4.5252 7.57501L6.30645 9.35626C6.5002 9.55001 6.81895 9.55001 7.0127 9.35626C7.20645 9.16251 7.20645 8.84376 7.0127 8.65001L5.23145 6.86876L6.5252 5.57501L8.30645 7.35626C8.5002 7.55001 8.81895 7.55001 9.0127 7.35626C9.20645 7.16251 9.20645 6.84376 9.0127 6.65001L7.23145 4.86876L7.22832 4.86564Z" fill="black"/>
</g>
<defs>
<clipPath id="clip0_1050_13281">
<path d="M0.65625 0H16.6562V16H0.65625V0Z" fill="white"/>
</clipPath>
</defs>
</svg>
