<svg width="25" height="24" viewBox="0 0 25 24" fill="none" xmlns="http://www.w3.org/2000/svg">
<g clip-path="url(#clip0_7_135)">
<path d="M19.8281 9.75C19.8281 11.9016 19.1297 13.8891 17.9531 15.5016L23.8875 21.4406C24.4734 22.0266 24.4734 22.9781 23.8875 23.5641C23.3016 24.15 22.35 24.15 21.7641 23.5641L15.8297 17.625C14.2172 18.8063 12.2297 19.5 10.0781 19.5C4.69219 19.5 0.328125 15.1359 0.328125 9.75C0.328125 4.36406 4.69219 0 10.0781 0C15.4641 0 19.8281 4.36406 19.8281 9.75ZM10.0781 16.5C10.9645 16.5 11.8423 16.3254 12.6612 15.9862C13.4802 15.647 14.2243 15.1498 14.8511 14.523C15.4779 13.8962 15.9751 13.1521 16.3143 12.3331C16.6535 11.5142 16.8281 10.6364 16.8281 9.75C16.8281 8.86358 16.6535 7.98583 16.3143 7.16689C15.9751 6.34794 15.4779 5.60382 14.8511 4.97703C14.2243 4.35023 13.4802 3.85303 12.6612 3.51381C11.8423 3.17459 10.9645 3 10.0781 3C9.1917 3 8.31396 3.17459 7.49501 3.51381C6.67606 3.85303 5.93195 4.35023 5.30515 4.97703C4.67836 5.60382 4.18116 6.34794 3.84194 7.16689C3.50272 7.98583 3.32812 8.86358 3.32812 9.75C3.32812 10.6364 3.50272 11.5142 3.84194 12.3331C4.18116 13.1521 4.67836 13.8962 5.30515 14.523C5.93195 15.1498 6.67606 15.647 7.49501 15.9862C8.31396 16.3254 9.1917 16.5 10.0781 16.5Z" fill="#F97316"/>
</g>
<defs>
<clipPath id="clip0_7_135">
<path d="M0.328125 0H24.3281V24H0.328125V0Z" fill="white"/>
</clipPath>
</defs>
</svg>
