<svg width="24" height="24" viewBox="0 0 24 24" fill="none" xmlns="http://www.w3.org/2000/svg">
<path d="M0 0H24V24H0V0Z" stroke="#E5E7EB"/>
<path d="M10.6172 4.35448C11.2875 6.36541 10.6032 8.3951 9.0891 8.89198C7.57504 9.38885 5.80316 8.16073 5.13285 6.14979C4.46254 4.13885 5.14691 2.10916 6.66098 1.61229C8.17504 1.11541 9.94691 2.34354 10.6172 4.35448ZM4.70629 9.30917C5.59223 10.8279 5.3766 12.5951 4.22816 13.2514C3.07973 13.9076 1.42973 13.2092 0.548476 11.6904C-0.332774 10.1717 -0.126524 8.40448 1.02191 7.74823C2.17035 7.09198 3.82035 7.79041 4.7016 9.30917H4.70629ZM3.24379 18.806C5.70004 12.1826 10.0641 10.4998 12 10.4998C13.936 10.4998 18.3 12.1826 20.7563 18.806C20.925 19.2607 21 19.7482 21 20.2357V20.3107C21 21.5201 20.0203 22.4998 18.811 22.4998C18.2719 22.4998 17.7375 22.4342 17.2172 22.3029L13.0922 21.2717C12.375 21.0935 11.625 21.0935 10.9079 21.2717L6.78285 22.3029C6.26254 22.4342 5.72816 22.4998 5.1891 22.4998C3.97973 22.4998 3.00004 21.5201 3.00004 20.3107V20.2357C3.00004 19.7482 3.07504 19.2607 3.24379 18.806ZM19.7719 13.2514C18.6235 12.5951 18.4079 10.8279 19.2938 9.30917C20.1797 7.79041 21.825 7.09198 22.9735 7.74823C24.1219 8.40448 24.3375 10.1717 23.4516 11.6904C22.5657 13.2092 20.9203 13.9076 19.7719 13.2514ZM14.536 8.89198C13.0219 8.3951 12.3375 6.36541 13.0079 4.35448C13.6782 2.34354 15.45 1.11541 16.9641 1.61229C18.4782 2.10916 19.1625 4.13885 18.4922 6.14979C17.8219 8.16073 16.05 9.38885 14.536 8.89198Z" fill="#F97316"/>
</svg>
