<svg width="39" height="30" viewBox="0 0 39 30" fill="none" xmlns="http://www.w3.org/2000/svg">
<g clip-path="url(#clip0_19_1466)">
<path d="M19.4062 0C21.3954 0 23.303 0.790176 24.7096 2.1967C26.1161 3.60322 26.9062 5.51088 26.9062 7.5C26.9062 9.48912 26.1161 11.3968 24.7096 12.8033C23.303 14.2098 21.3954 15 19.4062 15C17.4171 15 15.5095 14.2098 14.1029 12.8033C12.6964 11.3968 11.9062 9.48912 11.9062 7.5C11.9062 5.51088 12.6964 3.60322 14.1029 2.1967C15.5095 0.790176 17.4171 0 19.4062 0ZM3 3.75C4.29492 3.75 5.34375 4.79883 5.34375 6.09375V8.4375V13.125V15.4805C5.34375 16.4766 5.73633 17.4316 6.43945 18.1348L9.43359 21.1289C9.91992 21.6152 10.6816 21.6914 11.25 21.3105C12.0059 20.8066 12.1113 19.7344 11.4668 19.0957L10.5762 18.2051L8.70117 16.3301C7.96875 15.5977 7.96875 14.4082 8.70117 13.6758C9.43359 12.9434 10.623 12.9434 11.3555 13.6758L13.2305 15.5508L14.1211 16.4414L15.6035 17.9238C16.834 19.1543 17.5254 20.8242 17.5254 22.5645V27.1875C17.5254 28.7402 16.2656 30 14.7129 30H10.8105C9.81445 30 8.85938 29.6074 8.15625 28.9043L2.30273 23.0508C1.24805 21.9961 0.65625 20.5664 0.65625 19.0723V13.125V9.375V6.09375C0.65625 4.79883 1.70508 3.75 3 3.75ZM35.8125 3.75C37.1074 3.75 38.1562 4.79883 38.1562 6.09375V9.375V13.125V19.0723C38.1562 20.5664 37.5645 21.9961 36.5098 23.0508L30.6562 28.9043C29.9531 29.6074 28.998 30 28.002 30H24.0938C22.541 30 21.2812 28.7402 21.2812 27.1875V22.5645C21.2812 20.8242 21.9727 19.1543 23.2031 17.9238L24.6855 16.4414L25.5762 15.5508L27.4512 13.6758C28.1836 12.9434 29.373 12.9434 30.1055 13.6758C30.8379 14.4082 30.8379 15.5977 30.1055 16.3301L28.2305 18.2051L27.3398 19.0957C26.6953 19.7402 26.8008 20.8066 27.5566 21.3105C28.125 21.6914 28.8867 21.6152 29.373 21.1289L32.3672 18.1348C33.0703 17.4316 33.4629 16.4766 33.4629 15.4805V13.125V8.4375V6.09375C33.4629 4.79883 34.5117 3.75 35.8066 3.75H35.8125Z" fill="#F97316"/>
</g>
<defs>
<clipPath id="clip0_19_1466">
<path d="M0.65625 0H38.1562V30H0.65625V0Z" fill="white"/>
</clipPath>
</defs>
</svg>
