<svg width="38" height="30" viewBox="0 0 38 30" fill="none" xmlns="http://www.w3.org/2000/svg">
<g clip-path="url(#clip0_19_1561)">
<path d="M22.5001 1.875H30.0001C31.0372 1.875 31.8751 2.71289 31.8751 3.75C31.8751 4.78711 31.0372 5.625 30.0001 5.625H23.3439C23.0392 7.13672 22.0021 8.38477 20.6251 8.98242V26.25H30.0001C31.0372 26.25 31.8751 27.0879 31.8751 28.125C31.8751 29.1621 31.0372 30 30.0001 30H18.7501H7.5001C6.463 30 5.6251 29.1621 5.6251 28.125C5.6251 27.0879 6.463 26.25 7.5001 26.25H16.8751V8.98242C15.4982 8.37891 14.461 7.13086 14.1564 5.625H7.5001C6.463 5.625 5.6251 4.78711 5.6251 3.75C5.6251 2.71289 6.463 1.875 7.5001 1.875H15.0001C15.8556 0.738281 17.2149 0 18.7501 0C20.2853 0 21.6446 0.738281 22.5001 1.875ZM25.7579 18.75H34.2423L30.0001 11.4727L25.7579 18.75ZM30.0001 24.375C26.3146 24.375 23.2501 22.3828 22.6173 19.752C22.4649 19.1074 22.6759 18.4453 23.0099 17.8711L28.588 8.30859C28.881 7.80469 29.42 7.5 30.0001 7.5C30.5802 7.5 31.1192 7.81055 31.4122 8.30859L36.9903 17.8711C37.3243 18.4453 37.5353 19.1074 37.3829 19.752C36.7501 22.3828 33.6857 24.375 30.0001 24.375ZM7.42979 11.4727L3.1876 18.75H11.6778L7.42979 11.4727ZM0.0528391 19.752C-0.0995047 19.1074 0.111433 18.4453 0.445417 17.8711L6.02354 8.30859C6.31651 7.80469 6.85557 7.5 7.43565 7.5C8.01573 7.5 8.55479 7.81055 8.84776 8.30859L14.4259 17.8711C14.7599 18.4453 14.9708 19.1074 14.8185 19.752C14.1798 22.3828 11.1153 24.375 7.42979 24.375C3.74425 24.375 0.685652 22.3828 0.0528391 19.752Z" fill="#F97316"/>
</g>
<defs>
<clipPath id="clip0_19_1561">
<path d="M0 0H37.5V30H0V0Z" fill="white"/>
</clipPath>
</defs>
</svg>
