<svg width="17" height="16" viewBox="0 0 17 16" fill="none" xmlns="http://www.w3.org/2000/svg">
<g clip-path="url(#clip0_45_382)">
<path d="M7.25011 2.90315C7.69698 4.24377 7.24073 5.5969 6.23136 5.92815C5.22198 6.2594 4.04073 5.44065 3.59386 4.10002C3.14698 2.7594 3.60323 1.40627 4.61261 1.07502C5.62198 0.743772 6.80323 1.56252 7.25011 2.90315ZM3.30948 6.20627C3.90011 7.21877 3.75636 8.3969 2.99073 8.8344C2.22511 9.2719 1.12511 8.80627 0.537607 7.79377C-0.0498933 6.78127 0.0876067 5.60315 0.853232 5.16565C1.61886 4.72815 2.71886 5.19377 3.30636 6.20627H3.30948ZM2.33448 12.5375C3.97198 8.1219 6.88136 7.00002 8.17198 7.00002C9.46261 7.00002 12.372 8.1219 14.0095 12.5375C14.122 12.8406 14.172 13.1656 14.172 13.4906V13.5406C14.172 14.3469 13.5189 15 12.7126 15C12.3532 15 11.997 14.9563 11.6501 14.8688L8.90011 14.1813C8.42198 14.0625 7.92198 14.0625 7.44386 14.1813L4.69386 14.8688C4.34698 14.9563 3.99073 15 3.63136 15C2.82511 15 2.17198 14.3469 2.17198 13.5406V13.4906C2.17198 13.1656 2.22198 12.8406 2.33448 12.5375ZM13.3532 8.8344C12.5876 8.3969 12.4439 7.21877 13.0345 6.20627C13.6251 5.19377 14.722 4.72815 15.4876 5.16565C16.2532 5.60315 16.397 6.78127 15.8064 7.79377C15.2157 8.80627 14.1189 9.2719 13.3532 8.8344ZM9.86261 5.92815C8.85323 5.5969 8.39698 4.24377 8.84386 2.90315C9.29073 1.56252 10.472 0.743772 11.4814 1.07502C12.4907 1.40627 12.947 2.7594 12.5001 4.10002C12.0532 5.44065 10.872 6.2594 9.86261 5.92815Z" fill="white"/>
</g>
<defs>
<clipPath id="clip0_45_382">
<path d="M0.171875 0H16.1719V16H0.171875V0Z" fill="white"/>
</clipPath>
</defs>
</svg>
