<svg width="38" height="30" viewBox="0 0 38 30" fill="none" xmlns="http://www.w3.org/2000/svg">
<path d="M0 0H37.5V30H0V0Z" stroke="#E5E7EB"/>
<path d="M31.875 14.5312V14.7246L35.959 10.6406C37.2422 9.35742 37.2422 7.2832 35.959 6L31.3828 1.42969C30.0996 0.146484 28.0254 0.146484 26.7422 1.42969L24.3926 3.7793C24.2344 3.76172 24.0703 3.75 23.9062 3.75H17.3438C15.1699 3.75 13.3828 5.39062 13.1484 7.5H13.125V14.5312C13.125 15.8262 14.1738 16.875 15.4688 16.875C16.7637 16.875 17.8125 15.8262 17.8125 14.5312V10.3125V10.3066V9.375H18.75H26.7188C26.7188 9.375 26.7188 9.375 26.7246 9.375H27.1875C29.7773 9.375 31.875 11.4727 31.875 14.0625V14.5312ZM19.6875 11.25V14.5312C19.6875 16.8633 17.8008 18.75 15.4688 18.75C13.1367 18.75 11.25 16.8633 11.25 14.5312V7.58203C9.14648 7.94531 7.39453 9.47461 6.79688 11.5781L5.83008 14.9531L1.54102 19.2422C0.257812 20.5254 0.257812 22.5996 1.54102 23.8828L6.11719 28.459C7.40039 29.7422 9.47461 29.7422 10.7578 28.459L12.9668 26.25C13.0195 26.25 13.0723 26.2559 13.125 26.2559H22.5C24.0527 26.2559 25.3125 24.9961 25.3125 23.4434C25.3125 23.1152 25.2539 22.7988 25.1543 22.5059H25.3125C26.8652 22.5059 28.125 21.2461 28.125 19.6934C28.125 18.9434 27.832 18.2637 27.3516 17.7598C28.8574 17.4668 29.9941 16.1426 30 14.5488V14.5254C29.9941 12.7207 28.5293 11.2559 26.7188 11.2559H19.6875V11.25Z" fill="#F97316"/>
</svg>
