<svg width="21" height="24" viewBox="0 0 21 24" fill="none" xmlns="http://www.w3.org/2000/svg">
<g clip-path="url(#clip0_7_252)">
<path d="M10.5047 6.60928C7.52341 6.60928 5.11873 9.01396 5.11873 11.9952C5.11873 14.9765 7.52341 17.3812 10.5047 17.3812C13.4859 17.3812 15.8906 14.9765 15.8906 11.9952C15.8906 9.01396 13.4859 6.60928 10.5047 6.60928ZM10.5047 15.4968C8.5781 15.4968 7.0031 13.9265 7.0031 11.9952C7.0031 10.064 8.57341 8.49365 10.5047 8.49365C12.4359 8.49365 14.0062 10.064 14.0062 11.9952C14.0062 13.9265 12.4312 15.4968 10.5047 15.4968ZM17.3672 6.38896C17.3672 7.0874 16.8047 7.64522 16.1109 7.64522C15.4125 7.64522 14.8547 7.08271 14.8547 6.38896C14.8547 5.69521 15.4172 5.13271 16.1109 5.13271C16.8047 5.13271 17.3672 5.69521 17.3672 6.38896ZM20.9344 7.66397C20.8547 5.98115 20.4703 4.49053 19.2375 3.2624C18.0094 2.03428 16.5187 1.6499 14.8359 1.56553C13.1015 1.46709 7.9031 1.46709 6.16873 1.56553C4.4906 1.64521 2.99998 2.02959 1.76716 3.25771C0.534351 4.48584 0.154663 5.97646 0.0702881 7.65928C-0.0281494 9.39365 -0.0281494 14.5921 0.0702881 16.3265C0.149976 18.0093 0.534351 19.4999 1.76716 20.728C2.99998 21.9562 4.48591 22.3405 6.16873 22.4249C7.9031 22.5233 13.1015 22.5233 14.8359 22.4249C16.5187 22.3452 18.0094 21.9608 19.2375 20.728C20.4656 19.4999 20.85 18.0093 20.9344 16.3265C21.0328 14.5921 21.0328 9.39834 20.9344 7.66397ZM18.6937 18.1874C18.3281 19.1062 17.6203 19.814 16.6969 20.1843C15.314 20.7327 12.0328 20.6062 10.5047 20.6062C8.97654 20.6062 5.6906 20.728 4.31248 20.1843C3.39373 19.8187 2.68591 19.1108 2.3156 18.1874C1.76716 16.8046 1.89373 13.5233 1.89373 11.9952C1.89373 10.4671 1.77185 7.18115 2.3156 5.80303C2.68123 4.88428 3.38904 4.17646 4.31248 3.80615C5.69529 3.25771 8.97654 3.38428 10.5047 3.38428C12.0328 3.38428 15.3187 3.2624 16.6969 3.80615C17.6156 4.17178 18.3234 4.87959 18.6937 5.80303C19.2422 7.18584 19.1156 10.4671 19.1156 11.9952C19.1156 13.5233 19.2422 16.8093 18.6937 18.1874Z" fill="#9CA3AF"/>
</g>
<defs>
<clipPath id="clip0_7_252">
<path d="M0 0H21V24H0V0Z" fill="white"/>
</clipPath>
</defs>
</svg>
