<svg width="23" height="30" viewBox="0 0 23 30" fill="none" xmlns="http://www.w3.org/2000/svg">
<g clip-path="url(#clip0_14_1268)">
<path d="M11.6562 0C9.20703 0 7.12109 1.56445 6.35352 3.75H4.15625C2.08789 3.75 0.40625 5.43164 0.40625 7.5V26.25C0.40625 28.3184 2.08789 30 4.15625 30H19.1562C21.2246 30 22.9062 28.3184 22.9062 26.25V7.5C22.9062 5.43164 21.2246 3.75 19.1562 3.75H16.959C16.1914 1.56445 14.1055 0 11.6562 0ZM11.6562 3.75C12.1535 3.75 12.6304 3.94754 12.9821 4.29917C13.3337 4.65081 13.5312 5.12772 13.5312 5.625C13.5312 6.12228 13.3337 6.59919 12.9821 6.95083C12.6304 7.30246 12.1535 7.5 11.6562 7.5C11.159 7.5 10.6821 7.30246 10.3304 6.95083C9.97879 6.59919 9.78125 6.12228 9.78125 5.625C9.78125 5.12772 9.97879 4.65081 10.3304 4.29917C10.6821 3.94754 11.159 3.75 11.6562 3.75ZM4.625 15.9375C4.625 15.5645 4.77316 15.2069 5.03688 14.9431C5.3006 14.6794 5.65829 14.5312 6.03125 14.5312C6.40421 14.5312 6.7619 14.6794 7.02562 14.9431C7.28934 15.2069 7.4375 15.5645 7.4375 15.9375C7.4375 16.3105 7.28934 16.6681 7.02562 16.9319C6.7619 17.1956 6.40421 17.3438 6.03125 17.3438C5.65829 17.3438 5.3006 17.1956 5.03688 16.9319C4.77316 16.6681 4.625 16.3105 4.625 15.9375ZM10.7188 15H18.2188C18.7344 15 19.1562 15.4219 19.1562 15.9375C19.1562 16.4531 18.7344 16.875 18.2188 16.875H10.7188C10.2031 16.875 9.78125 16.4531 9.78125 15.9375C9.78125 15.4219 10.2031 15 10.7188 15ZM4.625 21.5625C4.625 21.1895 4.77316 20.8319 5.03688 20.5681C5.3006 20.3044 5.65829 20.1562 6.03125 20.1562C6.40421 20.1562 6.7619 20.3044 7.02562 20.5681C7.28934 20.8319 7.4375 21.1895 7.4375 21.5625C7.4375 21.9355 7.28934 22.2931 7.02562 22.5569C6.7619 22.8206 6.40421 22.9688 6.03125 22.9688C5.65829 22.9688 5.3006 22.8206 5.03688 22.5569C4.77316 22.2931 4.625 21.9355 4.625 21.5625ZM9.78125 21.5625C9.78125 21.0469 10.2031 20.625 10.7188 20.625H18.2188C18.7344 20.625 19.1562 21.0469 19.1562 21.5625C19.1562 22.0781 18.7344 22.5 18.2188 22.5H10.7188C10.2031 22.5 9.78125 22.0781 9.78125 21.5625Z" fill="#F97316"/>
</g>
<defs>
<clipPath id="clip0_14_1268">
<path d="M0.40625 0H22.9062V30H0.40625V0Z" fill="white"/>
</clipPath>
</defs>
</svg>
