<svg width="13" height="16" viewBox="0 0 13 16" fill="none" xmlns="http://www.w3.org/2000/svg">
<g clip-path="url(#clip0_1050_13201)">
<path d="M7.44375 15.6C9.04688 13.5938 12.7031 8.73125 12.7031 6C12.7031 2.6875 10.0156 0 6.70312 0C3.39062 0 0.703125 2.6875 0.703125 6C0.703125 8.73125 4.35938 13.5938 5.9625 15.6C6.34688 16.0781 7.05937 16.0781 7.44375 15.6ZM6.70312 4C7.23356 4 7.74227 4.21071 8.11734 4.58579C8.49241 4.96086 8.70312 5.46957 8.70312 6C8.70312 6.53043 8.49241 7.03914 8.11734 7.41421C7.74227 7.78929 7.23356 8 6.70312 8C6.17269 8 5.66398 7.78929 5.28891 7.41421C4.91384 7.03914 4.70312 6.53043 4.70312 6C4.70312 5.46957 4.91384 4.96086 5.28891 4.58579C5.66398 4.21071 6.17269 4 6.70312 4Z" fill="black"/>
</g>
<defs>
<clipPath id="clip0_1050_13201">
<path d="M0.703125 0H12.7031V16H0.703125V0Z" fill="white"/>
</clipPath>
</defs>
</svg>
