<svg width="16" height="23" viewBox="0 0 16 23" fill="none" xmlns="http://www.w3.org/2000/svg">
<path d="M16 23H0V0H16V23Z" stroke="#E5E7EB"/>
<g clip-path="url(#clip0_249_1281)">
<path d="M16 10.5C16 14.0906 12.4187 17 7.99995 17C6.84058 17 5.74057 16.8 4.74682 16.4406C4.37495 16.7125 3.7687 17.0844 3.04995 17.3969C2.29995 17.7219 1.39683 18 0.49995 18C0.296825 18 0.115575 17.8781 0.0374502 17.6906C-0.0406748 17.5031 0.00307515 17.2906 0.1437 17.1469L0.153075 17.1375C0.16245 17.1281 0.17495 17.1156 0.1937 17.0938C0.228075 17.0562 0.2812 16.9969 0.346825 16.9156C0.47495 16.7594 0.646825 16.5281 0.821825 16.2406C1.13433 15.7219 1.4312 15.0406 1.49058 14.275C0.553075 13.2125 -4.98396e-05 11.9094 -4.98396e-05 10.5C-4.98396e-05 6.90937 3.5812 4 7.99995 4C12.4187 4 16 6.90937 16 10.5Z" fill="#374151"/>
</g>
<defs>
<clipPath id="clip0_249_1281">
<path d="M0 3H16V19H0V3Z" fill="white"/>
</clipPath>
</defs>
</svg>
