<svg width="17" height="16" viewBox="0 0 17 16" fill="none" xmlns="http://www.w3.org/2000/svg">
<g clip-path="url(#clip0_1050_13327)">
<path d="M5.8875 0.768722C5.64687 0.187472 5.0125 -0.121903 4.40625 0.0437222L1.65625 0.793722C1.1125 0.943722 0.734375 1.43747 0.734375 1.99997C0.734375 9.73122 7.00313 16 14.7344 16C15.2969 16 15.7906 15.6218 15.9406 15.0781L16.6906 12.3281C16.8563 11.7218 16.5469 11.0875 15.9656 10.8468L12.9656 9.59685C12.4563 9.38435 11.8656 9.53122 11.5188 9.95935L10.2563 11.5C8.05625 10.4593 6.275 8.6781 5.23438 6.4781L6.775 5.21872C7.20312 4.86872 7.35 4.28122 7.1375 3.77185L5.8875 0.771847V0.768722Z" fill="black"/>
</g>
<defs>
<clipPath id="clip0_1050_13327">
<path d="M0.734375 0H16.7344V16H0.734375V0Z" fill="white"/>
</clipPath>
</defs>
</svg>
