<svg width="36" height="36" viewBox="0 0 36 36" fill="none" xmlns="http://www.w3.org/2000/svg">
<path d="M36 36H0V0H36V36Z" stroke="#E5E7EB"/>
<path d="M15.9258 6.53172C16.9312 9.54812 15.9047 12.5927 13.6336 13.338C11.3625 14.0833 8.70468 12.2411 7.69921 9.22468C6.69375 6.20828 7.72031 3.16375 9.9914 2.41843C12.2625 1.67312 14.9203 3.51531 15.9258 6.53172ZM7.05937 13.9637C8.38828 16.2419 8.06484 18.8927 6.34218 19.877C4.61953 20.8614 2.14453 19.8137 0.822652 17.5356C-0.499223 15.2575 -0.189848 12.6067 1.53281 11.6223C3.25546 10.638 5.73047 11.6856 7.05234 13.9637H7.05937ZM4.86562 28.2091C8.55 18.2739 15.0961 15.7497 18 15.7497C20.9039 15.7497 27.45 18.2739 31.1344 28.2091C31.3875 28.8911 31.5 29.6223 31.5 30.3536V30.4661C31.5 32.2802 30.0305 33.7497 28.2164 33.7497C27.4078 33.7497 26.6062 33.6512 25.8258 33.4544L19.6383 31.9075C18.5625 31.6403 17.4375 31.6403 16.3617 31.9075L10.1742 33.4544C9.39375 33.6512 8.59218 33.7497 7.78359 33.7497C5.96953 33.7497 4.5 32.2802 4.5 30.4661V30.3536C4.5 29.6223 4.6125 28.8911 4.86562 28.2091ZM29.6578 19.877C27.9352 18.8927 27.6117 16.2419 28.9406 13.9637C30.2695 11.6856 32.7375 10.638 34.4602 11.6223C36.1828 12.6067 36.5062 15.2575 35.1773 17.5356C33.8484 19.8137 31.3805 20.8614 29.6578 19.877ZM21.8039 13.338C19.5328 12.5927 18.5062 9.54812 19.5117 6.53172C20.5172 3.51531 23.175 1.67312 25.4461 2.41843C27.7172 3.16375 28.7437 6.20828 27.7383 9.22468C26.7328 12.2411 24.075 14.0833 21.8039 13.338Z" fill="white"/>
</svg>
