<svg width="39" height="30" viewBox="0 0 39 30" fill="none" xmlns="http://www.w3.org/2000/svg">
<g clip-path="url(#clip0_1050_9840)">
<path d="M9.09375 0C10.337 0 11.5292 0.49386 12.4083 1.37294C13.2874 2.25201 13.7812 3.4443 13.7812 4.6875C13.7812 5.9307 13.2874 7.12299 12.4083 8.00206C11.5292 8.88114 10.337 9.375 9.09375 9.375C7.85055 9.375 6.65826 8.88114 5.77919 8.00206C4.90011 7.12299 4.40625 5.9307 4.40625 4.6875C4.40625 3.4443 4.90011 2.25201 5.77919 1.37294C6.65826 0.49386 7.85055 0 9.09375 0ZM30.6562 0C31.8995 0 33.0917 0.49386 33.9708 1.37294C34.8499 2.25201 35.3438 3.4443 35.3438 4.6875C35.3438 5.9307 34.8499 7.12299 33.9708 8.00206C33.0917 8.88114 31.8995 9.375 30.6562 9.375C29.413 9.375 28.2208 8.88114 27.3417 8.00206C26.4626 7.12299 25.9688 5.9307 25.9688 4.6875C25.9688 3.4443 26.4626 2.25201 27.3417 1.37294C28.2208 0.49386 29.413 0 30.6562 0ZM0.65625 17.502C0.65625 14.0508 3.45703 11.25 6.9082 11.25H9.41016C10.3418 11.25 11.2266 11.4551 12.0234 11.8184C11.9473 12.2402 11.9121 12.6797 11.9121 13.125C11.9121 15.3633 12.8965 17.373 14.4492 18.75C14.4375 18.75 14.4258 18.75 14.4082 18.75H1.9043C1.21875 18.75 0.65625 18.1875 0.65625 17.502ZM24.4043 18.75C24.3926 18.75 24.3809 18.75 24.3633 18.75C25.9219 17.373 26.9004 15.3633 26.9004 13.125C26.9004 12.6797 26.8594 12.2461 26.7891 11.8184C27.5859 11.4492 28.4707 11.25 29.4023 11.25H31.9043C35.3555 11.25 38.1562 14.0508 38.1562 17.502C38.1562 18.1934 37.5938 18.75 36.9082 18.75H24.4043ZM13.7812 13.125C13.7812 11.6332 14.3739 10.2024 15.4288 9.14752C16.4837 8.09263 17.9144 7.5 19.4062 7.5C20.8981 7.5 22.3288 8.09263 23.3837 9.14752C24.4386 10.2024 25.0312 11.6332 25.0312 13.125C25.0312 14.6168 24.4386 16.0476 23.3837 17.1025C22.3288 18.1574 20.8981 18.75 19.4062 18.75C17.9144 18.75 16.4837 18.1574 15.4288 17.1025C14.3739 16.0476 13.7812 14.6168 13.7812 13.125ZM8.15625 28.4355C8.15625 24.123 11.6543 20.625 15.9668 20.625H22.8457C27.1582 20.625 30.6562 24.123 30.6562 28.4355C30.6562 29.2969 29.959 30 29.0918 30H9.7207C8.85938 30 8.15625 29.3027 8.15625 28.4355Z" fill="black"/>
</g>
<defs>
<clipPath id="clip0_1050_9840">
<path d="M0.65625 0H38.1562V30H0.65625V0Z" fill="white"/>
</clipPath>
</defs>
</svg>
