<svg width="16" height="16" viewBox="0 0 16 16" fill="none" xmlns="http://www.w3.org/2000/svg">
<path d="M16 16H0V0H16V16Z" stroke="#E5E7EB"/>
<path d="M7.07823 2.90315C7.52511 4.24377 7.06886 5.5969 6.05948 5.92815C5.05011 6.2594 3.86886 5.44065 3.42198 4.10002C2.97511 2.7594 3.43136 1.40627 4.44073 1.07502C5.45011 0.743772 6.63136 1.56252 7.07823 2.90315ZM3.13761 6.20627C3.72823 7.21877 3.58448 8.3969 2.81886 8.8344C2.05323 9.2719 0.953232 8.80627 0.365732 7.79377C-0.221768 6.78127 -0.0842683 5.60315 0.681357 5.16565C1.44698 4.72815 2.54698 5.19377 3.13448 6.20627H3.13761ZM2.16261 12.5375C3.80011 8.1219 6.70948 7.00002 8.00011 7.00002C9.29073 7.00002 12.2001 8.1219 13.8376 12.5375C13.9501 12.8406 14.0001 13.1656 14.0001 13.4906V13.5406C14.0001 14.3469 13.347 15 12.5407 15C12.1814 15 11.8251 14.9563 11.4782 14.8688L8.72823 14.1813C8.25011 14.0625 7.75011 14.0625 7.27198 14.1813L4.52198 14.8688C4.17511 14.9563 3.81886 15 3.45948 15C2.65323 15 2.00011 14.3469 2.00011 13.5406V13.4906C2.00011 13.1656 2.05011 12.8406 2.16261 12.5375ZM13.1814 8.8344C12.4157 8.3969 12.272 7.21877 12.8626 6.20627C13.4532 5.19377 14.5501 4.72815 15.3157 5.16565C16.0814 5.60315 16.2251 6.78127 15.6345 7.79377C15.0439 8.80627 13.947 9.2719 13.1814 8.8344ZM9.69073 5.92815C8.68136 5.5969 8.22511 4.24377 8.67198 2.90315C9.11886 1.56252 10.3001 0.743772 11.3095 1.07502C12.3189 1.40627 12.7751 2.7594 12.3282 4.10002C11.8814 5.44065 10.7001 6.2594 9.69073 5.92815Z" fill="black"/>
</svg>
