<svg width="34" height="30" viewBox="0 0 34 30" fill="none" xmlns="http://www.w3.org/2000/svg">
<g clip-path="url(#clip0_14_1259)">
<path d="M31.9727 16.8516C32.9688 16.8516 33.8477 16.0312 33.8477 14.9707C33.9062 14.4434 33.6719 13.9746 33.2031 13.5645L30.1094 10.8398V3.75C30.1094 2.71289 29.2715 1.875 28.2344 1.875H26.3594C25.3223 1.875 24.4844 2.71289 24.4844 3.75V5.90039L18.2441 0.410156C17.8926 0.117188 17.4238 0 17.0137 0C16.6035 0 16.1348 0.0585938 15.7246 0.46875L0.695312 13.5645C0.285156 13.9746 0.109375 14.4434 0.109375 14.9707C0.109375 16.0254 0.929688 16.8516 1.98438 16.8516H3.85938V20.9355C3.85352 20.9883 3.85352 21.041 3.85352 21.0996V27.6562C3.85352 28.9512 4.90234 30 6.19727 30H7.13477C7.20508 30 7.27539 29.9941 7.3457 29.9883C7.43359 29.9941 7.52148 30 7.60938 30H9.48438H10.8906C12.1855 30 13.2344 28.9512 13.2344 27.6562V26.25V22.5C13.2344 21.4629 14.0723 20.625 15.1094 20.625H18.8594C19.8965 20.625 20.7344 21.4629 20.7344 22.5V26.25V27.6562C20.7344 28.9512 21.7832 30 23.0781 30H24.4844H26.3887C26.4707 30 26.5527 30 26.6348 29.9941C26.6992 30 26.7637 30 26.8281 30H27.7656C29.0605 30 30.1094 28.9512 30.1094 27.6562V26.707C30.127 26.5547 30.1387 26.3965 30.1387 26.2324L30.0977 16.8457H31.9727V16.8516Z" fill="#F97316"/>
</g>
<defs>
<clipPath id="clip0_14_1259">
<path d="M0.109375 0H33.8594V30H0.109375V0Z" fill="white"/>
</clipPath>
</defs>
</svg>
