<svg width="16" height="16" viewBox="0 0 16 16" fill="none" xmlns="http://www.w3.org/2000/svg">
<g clip-path="url(#clip0_1050_13216)">
<path d="M5.55937 15.4406C4.975 16.025 4.025 16.025 3.4375 15.4406L0.559375 12.5594C-0.025 11.975 -0.025 11.025 0.559375 10.4375L2.14375 8.85313L3.64375 10.3531C3.8375 10.5469 4.15625 10.5469 4.35 10.3531C4.54375 10.1594 4.54375 9.84063 4.35 9.64688L2.85 8.14688L4.14375 6.85313L5.64375 8.35313C5.8375 8.54688 6.15625 8.54688 6.35 8.35313C6.54375 8.15938 6.54375 7.84063 6.35 7.64688L4.85 6.14688L6.14375 4.85313L7.64375 6.35313C7.8375 6.54688 8.15625 6.54688 8.35 6.35313C8.54375 6.15938 8.54375 5.84063 8.35 5.64688L6.85 4.14688L8.14375 2.85313L9.64375 4.35313C9.8375 4.54688 10.1562 4.54688 10.35 4.35313C10.5438 4.15938 10.5438 3.84063 10.35 3.64688L8.85 2.14688L10.4344 0.562503C11.0188 -0.021872 11.9688 -0.021872 12.5562 0.562503L15.4344 3.44063C16.0188 4.025 16.0188 4.975 15.4344 5.5625L5.55937 15.4406Z" fill="black"/>
</g>
<defs>
<clipPath id="clip0_1050_13216">
<path d="M0 0H16V16H0V0Z" fill="white"/>
</clipPath>
</defs>
</svg>
