<svg width="14" height="9" viewBox="0 0 14 9" fill="none" xmlns="http://www.w3.org/2000/svg">
<path fill-rule="evenodd" clip-rule="evenodd" d="M0.687355 0.305244C0.878652 0.119173 1.13519 0.0174974 1.40061 0.0225602C1.66602 0.027623 1.91858 0.13901 2.1028 0.332244L7.05686 5.64854L12.0109 0.332244C12.101 0.231879 12.21 0.150808 12.3316 0.0938373C12.4532 0.036866 12.5849 0.00515328 12.7189 0.000577494C12.8528 -0.00399829 12.9863 0.0186558 13.1115 0.0671984C13.2366 0.115741 13.3508 0.189184 13.4474 0.283176C13.5439 0.377167 13.6208 0.489794 13.6735 0.614384C13.7262 0.738974 13.7537 0.872991 13.7542 1.00849C13.7547 1.144 13.7283 1.27823 13.6766 1.40324C13.6249 1.52824 13.5489 1.64148 13.4531 1.73624L7.77794 7.81124C7.68451 7.90924 7.57251 7.98718 7.44861 8.04042C7.32472 8.09366 7.19148 8.12109 7.05686 8.12109C6.92224 8.12109 6.789 8.09366 6.66511 8.04042C6.54121 7.98718 6.42921 7.90924 6.33578 7.81124L0.660649 1.73624C0.476601 1.54285 0.37603 1.28348 0.381038 1.01516C0.386046 0.746827 0.496222 0.491487 0.687355 0.305244Z" fill="black"/>
</svg>
